<?xml version="1.0" encoding="UTF-8" standalone="no"?>
<svg
   xmlns:dc="http://purl.org/dc/elements/1.1/"
   xmlns:cc="http://creativecommons.org/ns#"
   xmlns:rdf="http://www.w3.org/1999/02/22-rdf-syntax-ns#"
   xmlns:svg="http://www.w3.org/2000/svg"
   xmlns="http://www.w3.org/2000/svg"
   xmlns:xlink="http://www.w3.org/1999/xlink"
   xmlns:sodipodi="http://sodipodi.sourceforge.net/DTD/sodipodi-0.dtd"
   xmlns:inkscape="http://www.inkscape.org/namespaces/inkscape"
   viewBox="0 0 65 65"
   fill="#fff"
   fill-rule="evenodd"
   stroke="#000"
   stroke-linecap="round"
   stroke-linejoin="round"
   version="1.1"
   id="svg7"
   sodipodi:docname="wireguard-gray.svg"
   inkscape:version="1.0 (4035a4fb49, 2020-05-01)">
  <metadata
     id="metadata13">
    <rdf:RDF>
      <cc:Work
         rdf:about="">
        <dc:format>image/svg+xml</dc:format>
        <dc:type
           rdf:resource="http://purl.org/dc/dcmitype/StillImage" />
      </cc:Work>
    </rdf:RDF>
  </metadata>
  <defs
     id="defs11" />
  <sodipodi:namedview
     inkscape:document-rotation="0"
     pagecolor="#ffffff"
     bordercolor="#666666"
     borderopacity="1"
     objecttolerance="10"
     gridtolerance="10"
     guidetolerance="10"
     inkscape:pageopacity="0"
     inkscape:pageshadow="2"
     inkscape:window-width="1920"
     inkscape:window-height="1021"
     id="namedview9"
     showgrid="false"
     inkscape:zoom="13.2"
     inkscape:cx="32.651515"
     inkscape:cy="32.5"
     inkscape:window-x="0"
     inkscape:window-y="27"
     inkscape:window-maximized="1"
     inkscape:current-layer="svg7" />
  <use
     xlink:href="#A"
     x=".5"
     y=".5"
     id="use2" />
  <symbol
     id="A"
     overflow="visible">
    <path
       d="M63.945 31.053S65.425 0 31.297 0C1.115 0 .172 29.788.172 29.788S-4.268 64 31.992 64c34.777 0 31.953-32.947 31.953-32.947zm-42.197-10.85c6.404-3.918 14.585-1.523 17.65 4.368.58 1.117.655 2.835.287 4.007-1.27 4.044-4.27 6.312-8.386 7.275 1.214-1.04 2.18-2.217 2.487-3.845a5.63 5.63 0 0 0-.969-4.471 5.71 5.71 0 0 0-6.573-2.003c-2.535.962-3.923 3.275-3.673 6.12.232 2.64 2.237 4.353 5.986 5.003l-1.414.75c-1.718.94-3.212 2.24-4.383 3.812-.38.514-.642.555-1.222.2-7.54-4.6-8.023-16.18.2-21.216zM16.106 48.7c-1.2.307-2.385.762-3.623 1.17.606-4.085 5.4-7.848 9.436-7.42a10.43 10.43 0 0 0-1.972 5.524c-1.344.248-2.6.414-3.84.726zM41.874 8.8c1.197.044 2.396.026 3.593.054a6.19 6.19 0 0 1 .889.124 9.42 9.42 0 0 1-.904 1.16c-.428.4-.912.8-1.53.183-.148-.146-.5-.112-.757-.116-1.2-.016-2.383-.054-3.572-.01-1.032.033-2.06.138-3.077.314-.2.034-.476.668-.388.902.207.552.508 1.16.955 1.512 1.65 1.303 3.407 2.474 5.066 3.768 1.612 1.258 3.112 2.636 4.027 4.534 1.2 2.473 1.226 5.065.712 7.67-.858 4.347-3.058 7.95-6.62 10.565-1.435 1.054-3.213 1.652-4.857 2.4-1.446.666-2.934 1.24-4.384 1.9-2.613 1.188-4.082 4.024-3.65 6.973.396 2.706 2.77 4.964 5.5 5.43 3.262.56 6.628-1.56 7.426-4.877.897-3.73-1.128-7.058-4.92-8.067l-.683-.176c1.014-.453 1.9-.776 2.7-1.22q2.117-1.165 4.156-2.467c.4-.256.616-.256.957.04 2.608 2.255 4.164 5.06 4.6 8.5.722 5.693-1.973 10.922-7.055 13.602-7.863 4.147-17.486-.573-19.222-9.3-1.488-7.467 3.782-14.24 10.125-15.548 2.728-.562 5.222-1.698 7.162-3.8 1.25-1.356 1.858-2.52 2.064-3.043a8.44 8.44 0 0 0 .58-3.087 7.23 7.23 0 0 0-.633-2.645c-.662-1.5-3.2-3.9-3.827-4.417l-5.973-4.676c-.2-.173-.448-.16-.962-.126-.6.04-2.17.128-2.844-.05.545-.412 2.03-1.012 2.667-1.495-1.936-1.308-4.145-.835-6.174-1.226.47-.874 2.8-2.217 4.1-2.366-.078-.737-.198-1.47-.36-2.193-.08-.297-.412-.585-.7-.754-.7-.4-1.444-.75-2.25-1.16a4.68 4.68 0 0 1 2.417-.748c.814-.03 1.628.048 2.42.236 1.438.33 2.586.114 3.73-.864-.9-.363-1.8-.694-2.675-1.086-.857-.39-1.693-.825-2.503-1.304 2.266.315 4.458 1.164 6.775.854q.03-.158.06-.316l-5.4-1.244c3.2-.293 6.195-.342 9.025 1.036.796.388 1.63.7 2.392 1.15.372.216.623.642.928.973.242.263.437.615.735.774 1.13.6 2.375.625 3.643.595l.028-.425c1.276.4 2.712 1.87 2.7 2.945-2.067 0-4.133-.008-6.2.01-.22.002-.44.163-.66.25.2.122.414.34.628.35zm-2.667-3.06c-.085.053-.14.143-.147.243a.32.32 0 0 0 .107.263.48.48 0 0 0 .29.225c.122.033.254.015.364-.05l.635-.334-.5-.434c-.28-.232-.514-.086-.74.087z"
       stroke="none"
       fill="#88171a"
       fill-rule="nonzero"
       id="path4" />
  </symbol>
  <path
     style="fill:#ffffff;stroke-width:0.0757576"
     d="M 22.02205,41.837121 C 21.164394,41.315982 20.612525,40.877664 19.848503,40.110798 15.521991,35.76818 15.063265,28.74232 18.787709,23.863636 c 1.828647,-2.395361 4.672403,-4.161475 7.684468,-4.772438 4.934167,-1.000839 10.130276,1.02684 12.760173,4.979406 0.938361,1.410297 1.148168,2.112138 1.089047,3.643064 -0.04128,1.069011 -0.22116,1.719473 -0.808286,2.922876 -0.981301,2.011324 -2.732165,3.702573 -4.859646,4.69418 -0.650181,0.303046 -2.292329,0.881397 -2.502604,0.881397 -0.04773,0 0.15197,-0.251351 0.443787,-0.558559 1.357172,-1.428749 1.907088,-2.818423 1.816129,-4.589483 -0.15699,-3.056787 -2.621019,-5.38623 -5.691835,-5.380945 -1.058056,0.0018 -1.681008,0.148801 -2.620457,0.618274 -0.664779,0.332211 -0.895017,0.497769 -1.401515,1.007794 -0.333334,0.335654 -0.721192,0.805958 -0.861908,1.045118 -0.576151,0.979228 -0.890968,2.335779 -0.815879,3.515635 0.05767,0.906227 0.154395,1.291917 0.514068,2.049933 0.680966,1.435148 2.340497,2.55097 4.565782,3.069903 0.399294,0.09312 0.725334,0.186345 0.724534,0.207179 -7.95e-4,0.02083 -0.377217,0.2395 -0.836484,0.485925 -1.669666,0.895884 -3.022954,1.945107 -4.001689,3.102565 -0.851894,1.007456 -1.183214,1.335752 -1.348057,1.335752 -0.08126,0 -0.358142,-0.127841 -0.615287,-0.284091 z"
     id="path15" />
  <path
     style="fill:#ffffff;stroke-width:0.0757576"
     d="m 13.068859,50.126974 c 0.0011,-0.276847 0.482648,-1.58144 0.779827,-2.112845 0.910625,-1.628349 2.653269,-3.283951 4.365663,-4.147606 0.64868,-0.327165 1.698727,-0.675377 2.411394,-0.799655 0.605194,-0.105537 1.684863,-0.154879 1.684863,-0.077 0,0.01943 -0.138636,0.249541 -0.30808,0.511364 -0.429371,0.663456 -0.84459,1.561538 -1.113462,2.408317 -0.207916,0.654811 -0.290457,1.044547 -0.456884,2.157287 l -0.05645,0.377442 -1.5515,0.274832 c -1.94548,0.344623 -2.50736,0.486609 -4.308318,1.08871 -1.388458,0.464192 -1.4477,0.477258 -1.447051,0.319154 z"
     id="path17" />
  <path
     style="fill:#ffffff;stroke-width:0.0757576"
     d="M 33.333333,63.435124 C 31.385869,63.20357 30.082979,62.828426 28.543945,62.056102 24.343361,59.94815 21.614405,55.920092 21.1705,51.172575 c -0.384327,-4.110342 1.502612,-8.498933 4.852026,-11.284707 1.704646,-1.417787 3.18023,-2.132168 5.707306,-2.763103 2.952679,-0.737195 4.6683,-1.598967 6.390506,-3.210005 0.925416,-0.865682 2.005539,-2.298234 2.442419,-3.239348 0.551012,-1.186973 0.842784,-2.87274 0.690153,-3.987491 -0.18288,-1.335683 -0.554487,-2.280976 -1.280024,-3.256128 -0.571824,-0.768555 -1.80792,-2.116482 -2.559889,-2.791484 -0.63987,-0.574377 -6.39254,-5.100961 -6.673186,-5.250907 -0.123355,-0.06591 -0.554956,-0.07771 -1.590909,-0.04351 -0.781896,0.02582 -1.556332,0.01703 -1.720969,-0.01953 l -0.299341,-0.06647 0.905401,-0.470948 c 1.332587,-0.69315 1.711428,-0.922681 1.660062,-1.005791 -0.07606,-0.123071 -0.87234,-0.497758 -1.410869,-0.663882 -0.629958,-0.194327 -1.334667,-0.287136 -2.994784,-0.394403 -0.716379,-0.04629 -1.39697,-0.109424 -1.512424,-0.140302 l -0.209917,-0.05614 0.342112,-0.342112 c 0.695341,-0.69534 2.222828,-1.555681 3.20482,-1.805079 l 0.538522,-0.136769 -0.02244,-0.2548139 C 27.59467,9.5991121 27.390642,8.4076436 27.300353,8.0700336 27.180435,7.6216407 26.828963,7.3456369 25.558244,6.7019929 L 24.412595,6.1216992 24.63054,5.9765246 c 0.11987,-0.079846 0.490672,-0.2360023 0.824005,-0.347014 0.537823,-0.1791136 0.721213,-0.2016973 1.628788,-0.2005774 0.740889,9.144e-4 1.248215,0.046371 1.840967,0.1649523 1.513101,0.3026983 2.49086,0.1794097 3.439443,-0.4336894 0.252382,-0.163122 0.479496,-0.3299502 0.504699,-0.3707293 C 32.89392,4.7482426 32.351394,4.488402 31.646527,4.2042358 30.18587,3.6153742 28.044061,2.5556643 28.235494,2.5165482 c 0.07119,-0.014546 0.88937,0.1286446 1.818182,0.3182016 1.835194,0.3745369 3.076491,0.5163276 3.90908,0.4465263 0.451697,-0.037869 0.538755,-0.068081 0.572949,-0.1988391 0.02217,-0.084802 0.02694,-0.1758297 0.01059,-0.2022836 -0.01635,-0.026454 -1.138442,-0.301139 -2.49354,-0.6104115 -1.474566,-0.336539 -2.421454,-0.5860192 -2.358313,-0.6213545 0.05802,-0.032472 0.83233,-0.079976 1.720679,-0.1055632 3.008116,-0.086644 4.571271,0.2000811 6.956088,1.2759339 2.193477,0.989534 2.275211,1.0419235 2.999577,1.9226355 0.518852,0.6308389 0.719981,0.8172634 1.050341,0.9735486 0.627181,0.2967043 1.269353,0.4229476 2.408415,0.4734651 0.86351,0.038297 1.041866,0.028079 1.042827,-0.059741 0.0034,-0.3065347 0.124428,-0.3180076 0.615022,-0.058281 0.914223,0.4840014 2.035333,1.8012736 2.035333,2.3914586 V 8.6363636 H 45.4182 c -2.675987,0 -3.146569,0.016822 -3.409091,0.1218622 -0.16751,0.067024 -0.304564,0.1494709 -0.304564,0.1832151 0,0.033744 0.119032,0.1349189 0.264515,0.2248318 0.249129,0.1539705 0.394423,0.1666993 2.49801,0.2188364 1.228424,0.030446 2.251775,0.073635 2.274115,0.095975 0.02234,0.02234 -0.08412,0.2078939 -0.236585,0.4123424 -0.85012,1.1400005 -1.37854,1.4104935 -1.938556,0.9923285 -0.238977,-0.178445 -0.303531,-0.186547 -1.800892,-0.226011 -2.701523,-0.0712 -5.584584,0.145066 -5.914534,0.443666 -0.573892,0.519366 -0.111049,1.699679 1.017256,2.594141 0.299187,0.23718 1.340518,1.010782 2.314069,1.719116 4.685032,3.408722 6.046815,4.892871 6.940636,7.564294 0.396381,1.184691 0.519436,2.013112 0.513722,3.458433 -0.0099,2.508005 -0.6061,4.95318 -1.804573,7.401232 -1.05929,2.16375 -2.410948,3.875307 -4.316576,5.465932 -1.150848,0.960611 -2.023284,1.458922 -4.204546,2.401521 -6.642954,2.870651 -6.445974,2.776823 -7.279148,3.467271 -1.95323,1.618633 -2.770544,4.614323 -1.933739,7.087706 0.391291,1.156558 1.282033,2.359432 2.339214,3.158921 0.611086,0.462131 1.675903,0.974701 2.441855,1.175434 0.841148,0.22044 2.260478,0.222201 3.085858,0.0038 1.362956,-0.360599 2.187055,-0.839741 3.202021,-1.861696 1.363497,-1.372887 1.919541,-2.898096 1.838366,-5.042574 -0.0305,-0.805809 -0.07196,-1.054253 -0.278098,-1.666667 -0.416159,-1.236348 -1.076373,-2.182059 -2.090571,-2.994603 -0.639879,-0.512651 -1.824581,-1.106494 -2.651516,-1.329098 -0.333333,-0.08973 -0.614165,-0.170233 -0.624071,-0.178894 -0.0099,-0.0087 0.177595,-0.09541 0.416667,-0.192769 1.612736,-0.65678 2.421848,-1.085459 5.111,-2.707881 1.213195,-0.731946 1.610736,-0.937213 1.748254,-0.902698 0.233549,0.05862 1.355919,1.112695 1.970786,1.850873 1.719325,2.06413 2.71315,4.456274 3.012258,7.250525 0.10726,1.002004 0.05092,2.665222 -0.124452,3.674242 -0.987398,5.680989 -5.645451,10.100246 -11.462232,10.874619 -0.731709,0.09741 -2.126442,0.128668 -2.699725,0.0605 z M 40.701305,6.7716064 41.023822,6.5838808 40.677758,6.2843646 c -0.382385,-0.3309513 -0.547117,-0.3628783 -0.8745,-0.1694884 -0.267464,0.1579951 -0.342576,0.3604922 -0.219217,0.590992 0.200504,0.3746442 0.551114,0.3952737 1.117264,0.065738 z"
     id="path19" />
  <path
     id="path12"
     d="M 30.189394,64.424508 C 21.540815,63.94619 15.237716,61.77868 10.227273,57.559931 9.3364385,56.809857 7.7209911,55.14999 6.9985448,54.242424 3.9097813,50.362196 1.8730638,45.47622 1.0142263,39.886364 0.72239798,37.986961 0.63204127,36.839117 0.59081573,34.507576 0.49999798,29.371312 1.1483814,25.140291 2.7335204,20.525373 6.4287336,9.7672614 14.238958,2.9657628 25.037879,1.101725 c 5.42063,-0.93567311 12.00154,-0.69095627 17.424242,0.6479355 3.988819,0.9848589 7.531481,2.6063632 10.498666,4.8053214 3.390676,2.5128045 5.961333,5.6156481 7.938026,9.5813821 1.839666,3.690822 2.913596,7.547544 3.39633,12.196969 0.158931,1.53074 0.134833,7.461726 -0.03617,8.901515 -0.552134,4.648852 -1.637327,8.512408 -3.353333,11.938702 -4.535573,9.056033 -12.538217,14.060582 -24.163219,15.110758 -1.209233,0.109239 -5.466103,0.200313 -6.55303,0.1402 z m 6.428324,-1.046969 c 5.44615,-0.995221 9.707768,-5.036567 10.831321,-10.271478 0.914193,-4.259449 -0.14451,-8.488309 -2.955438,-11.805151 -0.585803,-0.691236 -1.581719,-1.58324 -1.840072,-1.648083 -0.235414,-0.05909 -0.328744,-0.01089 -2.348275,1.212581 -1.982839,1.201247 -2.837987,1.6601 -4.114629,2.207823 -0.55349,0.237466 -0.987363,0.450738 -0.964163,0.473938 0.0232,0.0232 0.322646,0.121837 0.665436,0.219193 0.840033,0.238579 2.180113,0.916248 2.781105,1.406385 1.184335,0.965882 1.993351,2.395168 2.207782,3.900485 0.102627,0.720436 0.03799,2.079011 -0.130585,2.74495 -0.433957,1.714248 -1.78142,3.367795 -3.417815,4.194191 -0.88234,0.445591 -1.501592,0.59451 -2.63969,0.634798 -1.330797,0.04711 -1.960455,-0.09094 -3.194349,-0.700351 -0.713531,-0.352408 -0.960165,-0.524581 -1.534857,-1.071475 -0.772395,-0.735034 -1.307653,-1.483325 -1.650458,-2.307342 -1.050674,-2.525555 -0.235476,-5.68993 1.916884,-7.44082 0.510142,-0.414988 1.65072,-0.992186 3.595842,-1.819703 5.563919,-2.367069 6.182954,-2.675103 7.53019,-3.747034 3.668931,-2.919195 5.92947,-7.257735 6.338114,-12.164428 0.188224,-2.260055 -0.293377,-4.581404 -1.305528,-6.292728 -0.481403,-0.813946 -0.858154,-1.297116 -1.650248,-2.116386 -0.900276,-0.931165 -1.95574,-1.782075 -4.662528,-3.758906 -1.166666,-0.852045 -2.317803,-1.744067 -2.55808,-1.982271 -0.908792,-0.900952 -1.089432,-1.988325 -0.362815,-2.183982 0.878433,-0.236537 3.521902,-0.373341 5.877474,-0.304169 1.192119,0.03501 1.306327,0.0508 1.506429,0.208333 0.321495,0.2531 0.766086,0.230734 1.159129,-0.05831 0.31411,-0.230999 1.158166,-1.2642187 1.158166,-1.4177248 0,-0.107278 -0.678229,-0.1569348 -2.778324,-0.2034159 C 42.78969,9.2579477 42.331581,9.2215682 42.113565,9.130475 41.781699,8.9918129 41.832128,8.8882659 42.282404,8.783797 42.443748,8.746364 43.930871,8.714923 45.587121,8.713929 l 3.011364,-0.00181 V 8.4969485 c 0,-0.3041083 -0.388871,-1.0416283 -0.789984,-1.498258 C 47.448182,6.5884997 46.626333,5.9899734 46.161021,5.798883 l -0.278373,-0.11432 -0.05201,0.2367859 -0.05201,0.2367858 -0.974885,-0.051466 C 43.727333,6.0498417 42.828627,5.8551869 42.357145,5.5767468 42.189498,5.4777412 41.77623,5.0774332 41.438771,4.6871733 41.101312,4.2969136 40.689669,3.88658 40.524008,3.7753211 40.112482,3.4989371 37.644457,2.3768825 36.869423,2.1138129 35.299592,1.5809658 33.689835,1.3925797 31.401515,1.4739166 c -1.611945,0.057296 -2.392904,0.1329627 -2.19697,0.2128648 0.0625,0.025488 1.255682,0.3075603 2.651515,0.6268281 1.395834,0.3192679 2.564892,0.6057602 2.597908,0.6366495 0.30563,0.285944 -1.313759,0.3367235 -2.82518,0.08859 C 31.107954,2.9533421 30.087978,2.7630303 29.362173,2.6159336 28.636368,2.4688367 27.955487,2.3484848 27.849104,2.3484848 h -0.193423 l 0.18322,0.1283322 c 0.361894,0.2534803 2.480803,1.289536 3.297462,1.6123173 0.458334,0.1811545 1.00236,0.4132406 1.208947,0.5157469 l 0.375613,0.1863752 -0.185497,0.1502053 C 32.245176,5.1764919 31.672159,5.4451742 31.197477,5.568813 30.615171,5.7204845 30.072907,5.7111373 29.043252,5.53168 27.129673,5.1981642 25.926804,5.271218 24.840926,5.7868997 c -0.308343,0.1464311 -0.560623,0.283649 -0.560623,0.3049286 0,0.02128 0.403892,0.2446064 0.897536,0.4962818 1.184848,0.6040715 1.796291,1.0062528 1.933648,1.2718716 0.129218,0.2498807 0.426392,1.7176459 0.426392,2.1059853 0,0.208125 -0.02992,0.261306 -0.147,0.261306 -0.401107,0 -1.827266,0.630103 -2.618152,1.156747 -0.511627,0.340688 -1.25,1.026848 -1.25,1.161609 0,0.111216 0.348811,0.162094 1.780303,0.259678 1.992793,0.135845 2.634617,0.244657 3.506243,0.594434 0.508119,0.203903 0.799023,0.393715 0.721132,0.47053 -0.03339,0.03293 -0.60431,0.346165 -1.268711,0.696081 -0.664402,0.349915 -1.220193,0.672783 -1.235093,0.717482 -0.04349,0.130474 1.02204,0.195274 2.281606,0.138754 1.028685,-0.04616 1.173552,-0.0371 1.41149,0.08822 0.25786,0.135818 4.494532,3.427754 6.029222,4.684765 0.420239,0.344204 1.164598,1.046123 1.654132,1.559822 1.776982,1.864702 2.364347,2.841333 2.703145,4.494605 0.245924,1.200063 -0.02245,3.111219 -0.60857,4.333767 -1.017093,2.121491 -3.016806,4.099688 -5.305035,5.247956 -0.954753,0.47911 -1.786203,0.766875 -3.525924,1.220325 -1.641719,0.427906 -2.201029,0.624925 -3.231366,1.13826 -3.567481,1.777395 -6.306136,5.367303 -7.112243,9.322937 -0.661451,3.245794 -0.06787,6.689008 1.638127,9.502413 0.608064,1.002773 1.038972,1.563893 1.848,2.406433 2.15762,2.246989 5.034019,3.674026 8.183239,4.059863 0.780949,0.09568 2.857618,0.03587 3.625294,-0.104415 z M 14.64476,49.85587 c 1.746404,-0.582651 2.372927,-0.738687 4.407559,-1.0977 l 1.400804,-0.247173 0.09592,-0.675953 c 0.23681,-1.668745 0.744911,-3.0728 1.581962,-4.371497 0.182111,-0.282549 0.331112,-0.534725 0.331112,-0.560389 0,-0.02567 -0.400568,-0.02697 -0.890151,-0.0029 -1.207663,0.05937 -2.160638,0.313013 -3.327413,0.885608 -2.627571,1.289481 -4.651701,3.668233 -5.207159,6.119438 -0.06425,0.283538 -0.07775,0.473484 -0.03365,0.473484 0.04051,0 0.77896,-0.235313 1.641009,-0.522917 z m 8.264269,-7.73057 c 0.07365,-0.03942 0.398244,-0.396964 0.721313,-0.794546 1.111184,-1.367471 2.438431,-2.475299 4.020215,-3.355599 1.343052,-0.747438 1.414987,-0.790925 1.374813,-0.831098 -0.02176,-0.02175 -0.271591,-0.08768 -0.55519,-0.146499 -1.760176,-0.365061 -3.321061,-1.161506 -4.201596,-2.143871 -0.427014,-0.476395 -0.920122,-1.428236 -1.062359,-2.050657 -0.152224,-0.66612 -0.11188,-2.125613 0.07853,-2.840909 0.278991,-1.04807 0.691105,-1.774372 1.436923,-2.532404 0.572821,-0.5822 0.759146,-0.71795 1.452565,-1.058285 0.890825,-0.437224 1.578676,-0.610862 2.424243,-0.611968 1.683661,-0.0022 2.98101,0.534313 4.143635,1.713591 0.979655,0.993687 1.490486,2.160334 1.58744,3.62543 0.07419,1.121085 -0.206034,2.242674 -0.817847,3.27343 -0.139775,0.235488 -0.595046,0.785011 -1.011713,1.221162 l -0.757576,0.793003 0.29845,-0.05523 c 1.185664,-0.219405 3.444647,-1.22797 4.514539,-2.015602 1.65123,-1.2156 2.884507,-2.921602 3.573912,-4.943819 0.203879,-0.598034 0.242464,-0.833804 0.271304,-1.657764 0.04045,-1.155798 -0.09248,-1.883708 -0.488403,-2.67441 -1.3889,-2.773765 -4.307213,-5.031455 -7.585726,-5.868533 -2.048299,-0.522977 -4.573804,-0.525312 -6.546082,-0.0061 -3.112723,0.819517 -5.763782,2.680539 -7.498045,5.263569 -3.288914,4.898546 -2.629042,11.655862 1.542907,15.799878 0.993537,0.986886 2.394333,1.968851 2.808612,1.968851 0.07767,0 0.201483,-0.03225 0.275137,-0.07167 z"
     style="fill:#666666;stroke-width:0.0757576" />
  <path
     id="path14"
     d="M 39.696997,6.7152201 C 39.550879,6.4922159 39.600649,6.3550689 39.889645,6.1843551 40.152107,6.029315 40.283853,6.0604645 40.633834,6.360307 l 0.255047,0.2185085 -0.308847,0.157562 C 40.16152,6.9498874 39.845801,6.9423229 39.696997,6.7152201 Z"
     style="fill:#666666;stroke-width:0.0757576" />
</svg>
